<?xml version="1.0" standalone="no"?>
<!DOCTYPE svg PUBLIC "-//W3C//DTD SVG 20010904//EN"
 "http://www.w3.org/TR/2001/REC-SVG-20010904/DTD/svg10.dtd">
<svg version="1.0" xmlns="http://www.w3.org/2000/svg"
 width="512.000000pt" height="512.000000pt" viewBox="0 0 512.000000 512.000000"
 preserveAspectRatio="xMidYMid meet">
<metadata>
Created by potrace 1.16, written by Peter Selinger 2001-2019
</metadata>
<g transform="translate(0.000000,512.000000) scale(0.100000,-0.100000)"
fill="#000000" stroke="none">
<path d="M2353 4584 c-29 -14 -53 -30 -53 -35 0 -5 -5 -9 -11 -9 -7 0 -9 10
-5 25 8 30 -3 32 -35 6 -22 -18 -22 -20 -9 -60 7 -23 14 -58 14 -76 1 -29 5
-35 23 -35 12 0 25 -5 28 -11 4 -6 13 -8 20 -5 7 2 15 -4 18 -15 4 -14 -2 -23
-22 -33 -22 -12 -51 -52 -51 -72 0 -3 16 -2 36 2 32 6 39 3 71 -32 25 -27 37
-35 41 -25 2 7 -1 17 -7 21 -25 15 -38 57 -34 107 3 33 -1 62 -10 79 -19 35
-6 106 28 150 40 52 35 54 -42 18z"/>
<path d="M2430 4562 c-20 -17 -21 -21 -10 -72 14 -66 14 -128 0 -145 -12 -15
-4 -59 17 -93 13 -21 13 -26 -1 -41 -10 -11 -16 -36 -16 -69 0 -30 -5 -54 -12
-58 -9 -6 -5 -11 12 -16 20 -6 19 -7 -8 -3 -23 3 -34 0 -38 -10 -4 -8 -13 -15
-21 -15 -10 0 -12 -6 -8 -21 7 -20 4 -21 -42 -18 -60 5 -69 -10 -20 -36 20
-11 37 -26 37 -32 0 -7 5 -13 11 -13 5 0 7 -5 4 -10 -4 -6 -13 -4 -22 6 -15
15 -18 15 -30 -2 -7 -10 -13 -21 -13 -26 0 -4 -7 -8 -15 -8 -8 0 -15 -6 -15
-12 0 -7 -5 -5 -11 5 -6 10 -22 17 -39 17 -20 0 -30 5 -30 15 0 8 -9 15 -19
15 -10 0 -21 -7 -25 -15 -3 -8 -13 -15 -21 -15 -9 0 -13 -5 -10 -10 4 -6 12
-7 18 -4 7 4 9 3 4 -1 -4 -5 7 -23 24 -41 16 -17 32 -40 34 -50 2 -11 4 -21 4
-23 1 -2 9 3 19 12 12 11 22 13 32 6 12 -7 11 -10 -7 -15 -13 -4 -23 -12 -23
-19 0 -19 -38 -25 -105 -16 -61 9 -85 6 -85 -10 0 -5 -13 -9 -29 -9 -18 0 -31
-6 -35 -17 -6 -15 -8 -15 -16 -3 -8 12 -10 12 -10 1 0 -7 -6 -11 -15 -8 -8 4
-17 2 -20 -2 -10 -16 -110 -23 -141 -9 -39 17 -64 40 -58 50 3 5 0 15 -6 23
-7 8 -10 21 -7 28 6 17 -7 40 -25 43 -7 1 -22 6 -32 10 -14 5 -17 4 -12 -4 4
-7 3 -12 -3 -12 -5 0 -12 -19 -16 -42 -10 -59 -33 -74 -62 -42 -25 27 -21 54
9 54 21 0 54 27 44 37 -3 3 -1 12 6 20 8 10 7 17 -7 27 -10 7 -15 18 -11 24 4
7 2 12 -3 12 -6 0 -11 -6 -11 -14 0 -27 -28 -26 -35 2 -4 16 -2 28 4 30 19 6
12 19 -18 32 -38 15 -55 57 -47 117 l6 48 -56 45 c-30 25 -62 57 -70 73 -8 15
-23 27 -33 27 -19 0 -25 16 -47 134 -9 53 -28 87 -56 103 -18 10 -19 12 -5 13
23 0 22 20 -1 20 -22 0 -60 -42 -44 -48 14 -4 16 -32 3 -32 -13 0 -22 -91 -12
-132 7 -28 5 -40 -7 -52 -21 -21 -26 -135 -6 -143 7 -3 11 -10 7 -16 -4 -6 0
-8 10 -4 20 7 21 3 6 -24 -8 -16 -7 -25 7 -40 9 -10 12 -19 7 -19 -15 0 -26
-32 -14 -39 5 -3 12 -22 16 -43 6 -29 3 -38 -12 -47 -10 -6 -13 -11 -8 -11 6
0 4 -4 -4 -9 -12 -8 -12 -13 2 -35 21 -32 21 -33 -3 -39 -25 -6 -27 -29 -2
-26 72 7 74 -16 23 -215 -11 -43 -31 -71 -31 -43 0 9 -7 17 -15 17 -18 0 -20
-27 -3 -32 9 -3 8 -11 -5 -31 -13 -20 -15 -32 -7 -53 10 -27 10 -27 -28 -21
-52 6 -68 -3 -51 -31 7 -11 21 -23 30 -25 12 -3 19 -20 24 -55 8 -62 0 -92
-26 -92 -27 0 -25 -36 2 -43 15 -4 20 -11 16 -21 -5 -11 0 -16 14 -16 12 0 23
-10 29 -26 14 -35 36 -55 53 -49 10 5 13 -2 12 -27 -1 -17 -7 -34 -13 -36 -13
-4 -5 -54 15 -92 7 -14 13 -35 13 -47 0 -13 5 -23 10 -23 6 0 10 -4 10 -10 0
-5 -7 -7 -15 -4 -12 5 -15 -3 -15 -39 0 -27 -6 -49 -15 -57 -8 -6 -14 -26 -13
-43 1 -34 -32 -103 -59 -124 -10 -7 -20 -38 -25 -74 -7 -52 -5 -65 9 -81 16
-18 26 -58 13 -58 -3 0 -11 5 -18 12 -6 6 -15 8 -19 4 -5 -4 5 -18 21 -31 19
-15 26 -27 20 -36 -4 -8 -9 -60 -11 -116 -2 -85 0 -103 12 -103 13 0 13 -4 3
-21 -10 -17 -10 -23 0 -26 6 -3 12 -11 12 -18 0 -8 8 -18 17 -24 14 -8 15 -12
4 -25 -7 -9 -20 -16 -27 -16 -8 0 -14 -9 -14 -21 0 -12 5 -19 13 -16 6 2 25
-2 41 -11 27 -13 31 -13 43 4 12 16 13 15 13 -15 0 -26 -3 -31 -13 -23 -8 7
-18 7 -27 2 -18 -11 -10 -19 23 -22 26 -2 44 -35 62 -110 4 -15 13 -29 20 -31
7 -3 15 -21 19 -40 5 -28 14 -38 47 -52 46 -21 59 -41 63 -92 2 -34 6 -39 66
-71 48 -25 65 -39 66 -55 3 -76 4 -80 19 -67 17 14 35 5 35 -16 0 -17 176
-104 210 -104 11 0 20 -4 20 -10 0 -5 9 -10 20 -10 11 0 20 5 20 11 0 5 5 7
11 3 10 -6 20 -8 67 -13 7 -1 12 -17 12 -47 0 -51 14 -51 30 -1 8 27 9 24 4
-21 l-5 -54 36 5 c31 4 36 2 41 -19 5 -21 12 -24 50 -24 38 0 44 -3 44 -20 0
-11 7 -23 15 -26 9 -4 14 -16 13 -32 -2 -14 3 -27 10 -29 6 -3 12 2 12 11 0 9
8 16 20 16 11 0 20 -5 20 -11 0 -17 23 -35 55 -42 17 -3 38 -9 47 -12 13 -5
21 0 28 16 9 21 10 19 6 -14 -4 -32 -2 -37 15 -37 10 0 19 6 19 13 0 6 8 -3
16 -20 18 -36 34 -41 58 -18 20 21 65 37 79 28 6 -4 -19 23 -57 60 -38 37 -62
65 -53 61 15 -5 15 -3 0 35 -13 33 -19 39 -30 30 -7 -6 -13 -16 -13 -21 0 -6
6 -6 14 1 22 18 8 -29 -16 -56 -16 -17 -18 -25 -9 -41 13 -24 14 -32 3 -32
-11 0 -34 69 -37 113 -2 20 2 37 7 37 6 0 8 -14 3 -37 -6 -36 -5 -37 9 -17 8
11 16 34 18 50 3 27 1 29 -27 26 -16 -2 -32 -8 -34 -13 -1 -6 -11 -3 -21 6
-17 15 -50 11 -50 -7 0 -5 12 -20 28 -33 15 -13 21 -25 15 -25 -7 0 -13 -10
-13 -23 0 -13 -7 -32 -15 -43 -14 -18 -14 -18 -15 8 0 30 -22 46 -70 52 -36 4
-45 10 -35 25 9 16 32 14 60 -5 20 -13 25 -14 26 -3 1 8 3 30 4 51 4 34 2 36
-31 42 -20 4 -34 13 -34 21 0 8 -4 15 -10 15 -5 0 -10 -5 -10 -12 0 -6 -3 -8
-7 -4 -5 4 1 14 12 22 16 12 17 18 8 33 -10 16 -8 20 15 24 32 6 82 -28 114
-77 11 -17 18 -23 14 -13 -6 19 2 21 38 7 14 -5 39 -7 56 -4 25 5 28 9 20 24
-7 13 -6 20 3 24 16 6 -20 36 -45 36 -11 0 -18 7 -18 20 0 11 7 20 16 20 8 0
27 13 41 30 29 35 39 37 48 10 3 -11 13 -20 21 -20 9 0 14 -11 14 -36 0 -39
32 -94 56 -94 8 0 23 9 35 21 l21 21 25 -24 c20 -19 24 -31 21 -65 -4 -48 -1
-51 18 -26 14 20 19 18 28 -14 9 -27 -17 -34 -56 -15 -30 14 -38 42 -13 42 10
0 15 10 15 28 0 22 -2 24 -11 12 -8 -12 -9 -10 -4 7 8 30 -7 35 -46 16 -45
-22 -44 -20 -29 -48 7 -14 10 -28 7 -32 -4 -4 -33 -7 -65 -7 -81 -1 -81 -21
-1 -99 35 -34 62 -66 61 -70 -2 -5 2 -6 8 -2 5 3 10 17 10 30 0 13 5 27 10 30
6 3 10 1 10 -5 0 -21 134 -6 166 19 14 11 31 18 36 15 5 -3 17 0 26 7 9 7 -1
-7 -23 -31 -22 -24 -33 -39 -25 -33 8 5 29 13 47 16 26 5 33 3 38 -13 7 -21
25 -27 25 -9 0 8 6 7 17 -2 15 -12 16 -12 10 4 -3 9 -2 17 4 17 7 0 8 14 4 40
-5 32 -4 40 8 40 28 0 46 -11 40 -25 -3 -11 4 -13 29 -11 53 6 75 16 88 42 8
13 17 24 22 24 4 0 8 6 8 14 0 8 7 16 15 20 24 9 18 39 -14 69 -28 26 -31 26
-68 14 -21 -7 -37 -18 -36 -25 2 -7 -6 -12 -18 -12 -11 0 -27 -7 -35 -15 -9
-8 -21 -15 -27 -15 -7 1 -5 6 4 13 38 29 31 87 -11 87 -10 0 -20 5 -22 11 -5
15 -58 0 -58 -16 0 -13 30 -25 68 -25 29 0 28 -18 -2 -31 -31 -14 -104 -3 -88
13 8 8 4 15 -14 24 -22 12 -28 11 -42 -3 -12 -12 -13 -18 -4 -21 6 -2 12 -8
12 -13 0 -19 -16 -7 -45 34 -26 36 -30 51 -30 104 0 41 4 64 13 68 17 6 15 25
-3 25 -8 0 -15 7 -15 15 0 8 -3 15 -7 15 -5 0 -16 12 -26 25 -13 18 -14 23 -4
19 11 -4 13 1 10 21 -3 14 -9 28 -14 31 -5 3 -9 10 -9 15 0 6 5 7 10 4 6 -3
10 3 10 14 0 11 -9 22 -20 26 -15 5 -19 12 -15 26 4 13 2 19 -9 19 -9 0 -18
11 -22 25 -3 14 -10 23 -14 20 -6 -4 -34 39 -79 123 -23 44 -31 101 -15 117
22 21 16 45 -12 56 -15 5 -30 7 -33 3 -7 -7 -30 -156 -31 -201 0 -32 -20 -57
-28 -35 -6 19 -22 14 -22 -7 0 -27 -12 -54 -19 -44 -10 14 -81 53 -97 53 -10
0 -14 -13 -14 -51 0 -56 -13 -89 -35 -89 -8 0 -15 -4 -15 -10 0 -5 -9 -10 -21
-10 -12 0 -23 -8 -26 -20 -3 -11 -9 -20 -14 -20 -5 0 -9 -7 -9 -15 0 -8 -5
-15 -10 -15 -6 0 -10 -6 -9 -13 3 -27 -2 -39 -14 -34 -7 3 -19 -4 -26 -15 -11
-17 -20 -20 -62 -16 -34 4 -48 2 -46 -6 3 -6 10 -10 16 -9 6 2 11 -1 11 -7 0
-12 -39 -7 -48 6 -9 13 -77 54 -88 54 -5 0 -2 -5 6 -10 11 -6 12 -12 4 -20
-16 -16 -44 -2 -37 18 4 9 3 14 -2 10 -10 -10 -61 17 -68 37 -8 20 -53 20 -61
0 -5 -14 -9 -14 -36 0 -16 8 -30 22 -30 30 0 9 9 5 26 -12 14 -14 28 -23 31
-20 8 9 -48 78 -58 71 -5 -3 -30 15 -56 40 -36 34 -43 46 -29 46 26 0 13 46
-25 86 -16 17 -26 34 -22 38 4 4 1 11 -7 16 -8 5 -16 22 -16 37 -1 15 -2 44
-4 63 -1 19 1 44 5 56 4 13 1 27 -9 37 -20 19 -20 46 -1 71 22 30 18 39 -15
34 -16 -3 -28 -2 -25 0 2 3 0 13 -6 23 -7 13 -6 38 2 78 12 57 12 61 -10 78
-17 14 -23 31 -25 71 -2 29 1 55 5 58 16 10 10 37 -7 30 -9 -3 -12 -2 -9 5 4
5 -1 21 -10 35 -9 13 -13 29 -10 34 4 6 -1 7 -11 3 -12 -4 -15 -3 -10 6 5 7
-3 28 -17 49 -27 39 -31 77 -26 235 0 10 16 27 35 39 33 19 45 38 24 38 -17 0
0 25 28 43 59 36 68 47 52 57 -12 8 -11 10 8 10 12 0 22 5 22 10 0 6 7 10 15
10 8 0 15 7 15 15 0 8 9 15 20 15 11 0 20 6 20 13 0 17 42 57 59 57 8 0 11 6
7 15 -3 8 0 15 7 15 10 0 47 67 47 85 0 10 39 43 44 38 3 -4 6 3 6 15 0 11 5
24 10 27 6 4 10 12 9 18 -2 13 13 55 34 96 6 13 20 26 30 29 9 2 17 9 17 14 0
18 52 78 62 72 6 -4 8 -1 6 7 -6 17 49 69 74 69 10 0 18 4 18 9 0 11 55 31 87
31 13 0 34 10 46 23 29 31 57 41 57 22 0 -8 5 -15 10 -15 6 0 10 5 10 10 0 6
7 10 16 10 9 0 14 6 11 13 -3 8 3 14 14 14 10 1 19 -3 19 -8 0 -5 11 -7 24 -3
13 3 27 1 30 -5 4 -5 13 -8 21 -5 8 4 15 -3 17 -17 2 -12 9 -25 17 -27 10 -3
12 0 7 13 -5 15 -4 16 8 6 11 -9 15 -9 18 0 5 16 68 -20 68 -38 0 -16 17 -17
22 -2 2 6 12 1 23 -11 16 -18 16 -20 2 -14 -12 4 -17 1 -17 -14 0 -14 12 -25
40 -36 52 -21 89 -20 112 1 18 16 18 16 12 0 -8 -21 5 -22 34 -1 12 8 19 20
16 26 -4 7 -9 6 -14 -2 -5 -9 -9 -9 -14 -1 -4 6 -2 11 5 11 8 0 7 5 -2 17 -12
14 -10 14 21 -2 19 -10 38 -23 42 -29 4 -6 10 -7 14 -3 4 4 -1 16 -11 27 -17
19 -17 20 0 20 11 0 15 5 12 14 -4 10 -1 13 9 9 7 -3 14 0 14 7 0 7 8 9 20 5
11 -4 20 -2 20 4 0 6 -5 11 -12 11 -6 0 -8 3 -5 6 4 4 12 2 19 -4 7 -6 37 -9
66 -8 28 2 52 -1 52 -6 0 -5 6 -8 13 -7 6 1 25 -1 41 -6 20 -5 31 -4 37 6 6
11 9 10 15 -4 4 -10 13 -16 20 -13 8 3 19 -4 25 -16 9 -16 13 -18 19 -7 7 11
12 10 28 -4 22 -20 42 -22 42 -4 0 8 3 8 9 -2 8 -12 12 -12 26 2 9 10 20 17
25 17 5 0 7 14 4 30 -4 19 -2 30 5 30 16 0 14 39 -4 56 -8 8 -17 14 -20 14 -4
-1 -9 1 -12 4 -4 3 -1 6 5 6 14 0 16 46 3 54 -5 4 -12 30 -16 59 -8 60 -33
127 -47 127 -5 0 -6 5 -3 10 8 14 -8 13 -22 -1 -15 -15 -33 -3 -33 21 0 10 -7
20 -15 24 -8 3 -15 12 -15 20 0 7 -7 26 -15 42 -15 29 -14 30 -30 -22 -7 -22
-31 -11 -27 12 2 10 12 26 23 36 26 22 25 58 -2 58 -34 0 -59 -19 -59 -45 0
-14 -4 -25 -9 -25 -5 0 -11 -13 -14 -29 -3 -16 -13 -36 -22 -44 -8 -9 -15 -26
-15 -39 0 -30 -10 -44 -39 -53 -16 -5 -21 -4 -17 4 4 6 14 11 22 11 8 0 14 7
14 15 0 8 -4 15 -9 15 -22 0 -41 -14 -41 -30 0 -12 -17 -24 -52 -37 l-53 -20
-3 73 c-3 71 -14 96 -25 54 -6 -24 -22 -26 -31 -5 -3 8 -1 15 4 15 18 0 10 30
-7 31 -12 1 -9 4 7 8 15 5 35 3 52 -6 25 -12 58 -18 58 -10 0 2 -7 18 -15 35
-20 39 -46 47 -84 27 -27 -13 -30 -13 -25 0 4 8 11 15 16 15 6 0 8 11 6 25 -3
13 0 26 6 29 11 4 -6 21 -29 29 -5 2 -4 20 4 46 12 41 7 101 -8 101 -4 0 -13
-6 -20 -12 -11 -11 -13 -10 -8 3 3 9 1 21 -5 27 -6 6 -6 12 0 16 6 3 8 15 5
26 -3 11 -9 17 -14 14 -12 -7 -11 0 3 31 11 24 8 29 -34 73 -25 26 -51 57 -57
70 -14 27 -31 28 -61 4z m-57 -579 c-6 -16 -5 -16 10 -4 25 20 71 -11 63 -43
-4 -16 1 -29 14 -41 11 -10 20 -25 20 -34 0 -9 7 -27 16 -39 11 -16 14 -34 9
-58 -6 -33 -5 -35 14 -24 12 6 21 17 21 25 0 8 2 15 4 15 8 0 106 -104 106
-113 0 -5 -12 5 -26 22 -28 34 -49 39 -57 17 -4 -10 -1 -13 7 -10 8 3 17 1 20
-5 10 -15 -37 -10 -56 7 -15 13 -18 13 -18 1 0 -11 -14 -14 -58 -12 -82 2 -82
2 -82 14 0 7 9 9 21 6 16 -4 19 -3 11 5 -15 15 -3 38 19 38 11 0 19 7 19 16 0
12 6 15 25 10 46 -12 20 42 -38 79 -26 17 -27 17 -20 -1 3 -11 11 -22 16 -25
14 -10 0 -42 -16 -36 -6 2 -11 14 -9 26 2 13 -4 28 -14 35 -10 8 -17 26 -17
44 0 20 -4 29 -11 25 -6 -4 -5 1 2 10 15 17 7 41 -10 31 -6 -4 -6 2 1 15 14
25 23 28 14 4z m-972 -459 c6 -8 20 -14 30 -14 14 0 20 -10 25 -40 4 -22 11
-43 15 -46 5 -3 9 -14 9 -25 0 -22 24 -52 34 -42 3 4 6 15 6 25 0 11 4 17 9
14 4 -3 16 3 26 14 10 11 29 20 42 20 16 0 23 6 23 19 0 28 15 33 34 12 16
-17 15 -21 -16 -62 -19 -24 -43 -48 -53 -53 -11 -5 -29 -31 -40 -59 -15 -38
-29 -55 -60 -71 -27 -15 -42 -32 -47 -52 -4 -17 -22 -44 -40 -61 -46 -43 -66
-70 -91 -125 -12 -27 -25 -48 -29 -48 -14 0 -18 39 -9 100 5 37 5 78 0 95 -6
18 -5 31 0 33 6 2 8 9 5 17 -3 7 0 24 7 37 16 29 12 104 -7 142 -16 33 -18 46
-6 46 4 0 14 -20 21 -45 7 -25 16 -45 20 -45 3 0 7 46 9 102 2 72 7 105 17
112 8 6 19 25 26 41 l12 30 8 -28 c4 -16 13 -35 20 -43z"/>
<path d="M3777 3570 c-12 -33 -30 -59 -53 -77 -32 -24 -39 -25 -66 -15 -25 9
-32 8 -48 -8 -10 -10 -15 -22 -12 -26 4 -4 3 -5 -3 -2 -5 3 -19 2 -30 -2 -13
-5 -32 1 -57 16 -20 13 -39 20 -42 15 -10 -16 -75 -6 -90 14 -13 18 -17 18
-40 6 -14 -8 -26 -20 -26 -27 0 -16 40 -45 52 -38 4 3 8 -5 8 -16 0 -12 14
-35 32 -52 24 -22 29 -32 19 -38 -11 -6 -9 -10 7 -19 11 -6 27 -9 34 -8 7 2
10 2 6 0 -17 -10 -6 -43 21 -62 15 -11 31 -18 34 -15 3 3 3 -3 1 -14 -4 -14 0
-21 15 -25 15 -3 21 -14 22 -34 1 -15 3 -37 4 -48 1 -11 2 -30 3 -42 1 -13 10
-31 20 -41 11 -11 25 -33 33 -50 7 -17 17 -28 21 -26 4 3 5 -2 2 -10 -4 -11 2
-19 19 -25 26 -10 51 -44 41 -54 -3 -3 -1 -13 5 -24 5 -10 12 -26 15 -37 4
-12 12 -16 23 -12 10 4 14 4 11 0 -10 -9 20 -37 31 -29 9 5 24 -10 27 -27 1
-5 3 -9 4 -10 1 -2 3 -28 4 -59 1 -35 9 -67 20 -84 12 -18 16 -38 13 -59 -5
-30 8 -93 30 -146 20 -49 24 -68 13 -75 -5 -3 -10 -17 -10 -31 0 -13 -4 -24
-8 -24 -4 0 -6 28 -4 63 3 50 1 67 -13 81 -25 24 -30 13 -9 -19 18 -27 17 -43
-11 -145 -6 -23 -5 -23 8 -8 12 15 14 11 17 -40 11 -173 1 -231 -44 -278 -20
-20 -36 -45 -36 -55 0 -10 -11 -48 -24 -83 -14 -35 -22 -74 -19 -85 4 -15 -2
-24 -23 -33 -16 -7 -48 -32 -72 -55 -31 -31 -52 -43 -73 -43 -16 0 -29 -5 -29
-11 0 -5 -4 -7 -10 -4 -22 13 -31 -7 -12 -26 18 -16 19 -21 7 -51 -36 -96 -38
-98 -72 -98 -26 0 -33 -4 -33 -19 0 -11 -9 -22 -19 -26 -28 -9 -101 -87 -101
-107 0 -10 -6 -17 -12 -16 -8 2 -14 -9 -16 -24 -2 -16 1 -28 7 -28 6 0 11 -6
11 -14 0 -18 33 -30 60 -21 14 4 22 1 26 -10 5 -13 10 -10 22 15 11 22 17 27
23 18 6 -9 14 -5 30 15 12 16 27 26 35 23 7 -3 16 4 19 15 7 21 40 26 49 7 3
-10 8 -9 18 3 10 12 17 14 30 5 9 -5 21 -6 25 -2 4 5 3 11 -4 13 -21 7 8 30
32 25 17 -3 25 5 40 43 17 41 22 45 45 40 19 -4 21 -3 10 5 -9 6 -10 10 -3 10
18 0 113 103 113 123 0 9 5 17 11 17 6 0 9 7 5 15 -7 19 19 83 27 64 5 -11 8
-11 17 3 6 10 17 15 27 11 12 -5 15 -2 10 10 -3 9 -3 17 2 17 5 0 12 11 15 24
4 18 11 23 26 19 11 -3 20 0 20 6 0 6 -6 11 -12 11 -7 0 -5 5 5 11 9 5 17 15
17 20 0 6 -4 7 -10 4 -16 -10 -11 8 10 35 15 19 20 21 20 9 0 -9 6 -22 14 -28
11 -9 15 -5 19 21 8 53 16 79 27 94 7 7 9 17 6 23 -3 5 0 11 6 14 10 3 10 7
-1 20 -11 14 -11 17 1 17 9 0 14 14 16 47 2 42 13 62 35 63 5 0 5 -4 2 -10 -3
-5 1 -10 9 -10 9 0 16 7 16 15 0 8 -4 15 -9 15 -5 0 -10 15 -10 33 -5 187 -7
213 -29 252 -12 22 -18 41 -12 43 13 5 13 59 0 67 -6 3 -13 -1 -16 -9 -7 -18
-24 -22 -24 -5 0 6 12 26 26 44 l26 34 -34 30 -33 30 20 37 c12 22 33 42 52
51 31 12 45 33 23 33 -5 0 -7 6 -4 13 3 8 -1 19 -8 25 -13 10 -68 12 -68 1 0
-9 -60 2 -66 12 -3 5 -7 23 -9 39 -3 23 -1 28 12 23 13 -5 15 -2 10 17 -3 13
-1 30 5 37 8 10 7 30 -1 73 -7 33 -9 65 -5 71 12 20 4 152 -10 174 -8 12 -14
36 -14 53 1 20 -8 40 -26 58 -15 16 -40 43 -55 59 -16 17 -41 54 -55 83 -15
29 -38 62 -51 74 -20 17 -25 31 -25 69 0 54 -10 109 -19 109 -3 0 -14 -22 -24
-50z m-17 -430 c1 -21 39 -88 40 -70 0 13 1 13 10 0 5 -8 12 -11 16 -7 5 4 14
-3 21 -15 12 -22 12 -22 14 -3 0 11 0 36 0 55 -3 65 17 11 24 -67 6 -63 9 -72
19 -57 23 31 30 -46 9 -97 -10 -27 -13 -44 -6 -46 15 -5 3 -53 -14 -53 -8 0
-17 9 -20 20 -3 11 -10 20 -15 20 -6 0 -8 9 -5 20 3 13 -1 24 -14 30 -10 6
-19 18 -19 26 0 8 -11 36 -25 62 -14 26 -25 51 -25 57 0 6 -20 32 -45 59 -45
50 -58 86 -30 86 8 0 15 7 15 15 0 14 3 13 25 -2 13 -10 25 -25 25 -33z"/>
</g>
</svg>
